<?xml version="1.0" standalone="no"?><!DOCTYPE svg PUBLIC "-//W3C//DTD SVG 1.1//EN" "http://www.w3.org/Graphics/SVG/1.1/DTD/svg11.dtd"><svg t="1542698559556" class="icon" style="" viewBox="0 0 1024 1024" version="1.1" xmlns="http://www.w3.org/2000/svg" p-id="2383" xmlns:xlink="http://www.w3.org/1999/xlink" width="200" height="200"><defs><style type="text/css"></style></defs><path d="M495.657 499.159H250.808C115.794 499.159 5.96 389.325 5.96 254.31S115.794 9.462 250.808 9.462 495.647 119.296 495.647 254.31c0 1.178-0.031 2.345-0.072 3.513l-0.04 1.525 0.122 239.811zM250.808 50.422c-112.425 0-203.888 91.463-203.888 203.888S138.383 458.2 250.808 458.2h203.879l-0.103-199.23 0.113-4.659c-0.01-112.425-91.464-203.888-203.889-203.888z m525.2 448.737H531.159l0.123-240.21-0.041-1.116a99.953 99.953 0 0 1-0.072-3.512c0-135.015 109.835-244.849 244.839-244.849s244.848 109.824 244.848 244.838S911.022 499.16 776.008 499.16z m-203.868-40.96h203.868c112.425 0 203.888-91.464 203.888-203.889S888.443 50.422 776.008 50.422c-112.425 0-203.879 91.463-203.879 203.888l0.113 4.25-0.102 199.639zM247.982 1024C112.978 1024 3.144 914.156 3.144 779.151s109.834-244.838 244.848-244.838h244.86l-0.134 240.21 0.041 1.003c0.041 1.198 0.082 2.407 0.082 3.625C492.831 914.156 382.996 1024 247.982 1024z m0-448.727c-112.425 0-203.889 91.464-203.889 203.878 0.01 112.425 91.464 203.889 203.89 203.889S451.87 891.576 451.87 779.151l-0.113-4.178 0.102-199.7H247.982zM773.202 1024c-135.014 0-244.849-109.844-244.849-244.849 0-1.28 0.041-2.54 0.082-3.799l0.051-1.372-0.143-239.667h244.859c135.014 0 244.838 109.834 244.838 244.838S908.206 1024 773.202 1024zM569.324 575.273l0.112 199.23-0.123 4.648c0 112.425 91.454 203.889 203.889 203.889 112.425 0 203.878-91.464 203.878-203.889 0-112.425-91.463-203.878-203.878-203.878H569.324z" p-id="2384" fill="#ffffff"></path></svg>