<?xml version="1.0" standalone="no"?><!DOCTYPE svg PUBLIC "-//W3C//DTD SVG 1.1//EN" "http://www.w3.org/Graphics/SVG/1.1/DTD/svg11.dtd"><svg t="1542789622401" class="icon" style="" viewBox="0 0 1024 1024" version="1.1" xmlns="http://www.w3.org/2000/svg" p-id="2072" xmlns:xlink="http://www.w3.org/1999/xlink" width="200" height="200"><defs><style type="text/css"></style></defs><path d="M0 512.0299C0 794.700304 229.269797 1023.9701 511.940201 1023.9701c282.79000201 0 512.05979901-229.269797 512.059799-511.940201 0-282.79000201-229.269797-512-512.059799-512C229.269797 0.089699 0 229.239897 0 512.0299zM925.989255 512.0299c0 228.671806-185.25765 414.049054-414.049054 414.049054-228.671806 0-414.168652-185.377248-414.168652-414.049054 0-228.731605 185.496847-414.108853 414.168652-414.108853C740.731605 97.980846 925.98925499 283.298295 925.989255 512.0299zM477.974305 195.513198L210.134081 463.293623C191.416959 482.070544 197.755665 497.259519 224.246671 497.259519l123.006774 0c26.371409 0 48.018687 21.70707799 48.018687 48.078486L395.272133 794.461107c0 26.431208 21.467881 48.198085 48.13828499 48.198085L580.64938099 842.659192c26.371409 0 48.138285-21.647279 48.13828501-48.198085l0-249.123102c0-26.311609 21.58748-48.078486 48.018687-48.078486l123.006774 0c26.371409 0 32.710114-15.248774 14.112591-33.906097l-267.840224-267.840224C527.248774 176.796076 496.631628 176.796076 477.974305 195.513198z" fill="#ffffff" p-id="2073"></path></svg>